<mxfile host="app.diagrams.net" modified="2023-07-02T07:10:45.444Z" agent="Mozilla/5.0 (Windows NT 10.0; Win64; x64) AppleWebKit/537.36 (KHTML, like Gecko) Chrome/112.0.0.0 Safari/537.36" etag="viKfUKIakLFUJZjuOYT_" version="21.5.2" type="github" pages="2">
  <diagram name="第 1 页" id="3nX2BSyTHCfL3Wa8FLLo">
    <mxGraphModel dx="1235" dy="636" grid="0" gridSize="10" guides="1" tooltips="1" connect="1" arrows="1" fold="1" page="1" pageScale="1" pageWidth="827" pageHeight="1169" math="0" shadow="0">
      <root>
        <mxCell id="0" />
        <mxCell id="1" parent="0" />
        <mxCell id="h7UFg-lYE6FMvcC_o7Jn-2" value="1. Import Modules" style="whiteSpace=wrap;strokeWidth=2;" parent="1" vertex="1">
          <mxGeometry x="50" y="187" width="144" height="33" as="geometry" />
        </mxCell>
        <mxCell id="h7UFg-lYE6FMvcC_o7Jn-3" value="2. Get Process" style="whiteSpace=wrap;strokeWidth=2;" parent="1" vertex="1">
          <mxGeometry x="64" y="270" width="117" height="33" as="geometry" />
        </mxCell>
        <mxCell id="h7UFg-lYE6FMvcC_o7Jn-4" value="3. Generate eBPF Program" style="whiteSpace=wrap;strokeWidth=2;" parent="1" vertex="1">
          <mxGeometry x="20" y="354" width="204" height="33" as="geometry" />
        </mxCell>
        <mxCell id="h7UFg-lYE6FMvcC_o7Jn-5" value="4. Create BPF Object" style="whiteSpace=wrap;strokeWidth=2;" parent="1" vertex="1">
          <mxGeometry x="38" y="437" width="168" height="33" as="geometry" />
        </mxCell>
        <mxCell id="h7UFg-lYE6FMvcC_o7Jn-6" value="5. Attach eBPF Program" style="whiteSpace=wrap;strokeWidth=2;" parent="1" vertex="1">
          <mxGeometry x="30" y="520" width="184" height="33" as="geometry" />
        </mxCell>
        <mxCell id="h7UFg-lYE6FMvcC_o7Jn-7" value="6. Start Main Loop" style="whiteSpace=wrap;strokeWidth=2;" parent="1" vertex="1">
          <mxGeometry x="49" y="604" width="146" height="33" as="geometry" />
        </mxCell>
        <mxCell id="h7UFg-lYE6FMvcC_o7Jn-8" value="" style="curved=1;startArrow=none;endArrow=block;exitX=0.4977030305780916;exitY=0.9989316239316239;entryX=0.5016059345669217;entryY=-0.003787878787878788;rounded=0;" parent="1" target="h7UFg-lYE6FMvcC_o7Jn-2" edge="1">
          <mxGeometry relative="1" as="geometry">
            <Array as="points" />
            <mxPoint x="122.5" y="137" as="sourcePoint" />
          </mxGeometry>
        </mxCell>
        <mxCell id="h7UFg-lYE6FMvcC_o7Jn-9" value="" style="curved=1;startArrow=none;endArrow=block;exitX=0.5016059345669217;exitY=1.0083333795720881;entryX=0.4977030305780916;entryY=0.008333379572088068;rounded=0;" parent="1" source="h7UFg-lYE6FMvcC_o7Jn-2" target="h7UFg-lYE6FMvcC_o7Jn-3" edge="1">
          <mxGeometry relative="1" as="geometry">
            <Array as="points" />
          </mxGeometry>
        </mxCell>
        <mxCell id="h7UFg-lYE6FMvcC_o7Jn-10" value="" style="curved=1;startArrow=none;endArrow=block;exitX=0.4977030305780916;exitY=1.020454637932055;entryX=0.5011336008707682;entryY=-0.009848392370975378;rounded=0;" parent="1" source="h7UFg-lYE6FMvcC_o7Jn-3" target="h7UFg-lYE6FMvcC_o7Jn-4" edge="1">
          <mxGeometry relative="1" as="geometry">
            <Array as="points" />
          </mxGeometry>
        </mxCell>
        <mxCell id="h7UFg-lYE6FMvcC_o7Jn-11" value="" style="curved=1;startArrow=none;endArrow=block;exitX=0.5011336008707682;exitY=1.0022728659889915;entryX=0.5013765153430757;entryY=0.0022728659889914775;rounded=0;" parent="1" source="h7UFg-lYE6FMvcC_o7Jn-4" target="h7UFg-lYE6FMvcC_o7Jn-5" edge="1">
          <mxGeometry relative="1" as="geometry">
            <Array as="points" />
          </mxGeometry>
        </mxCell>
        <mxCell id="h7UFg-lYE6FMvcC_o7Jn-12" value="" style="curved=1;startArrow=none;endArrow=block;exitX=0.5013765153430757;exitY=1.0143941243489583;entryX=0.5012568183567213;entryY=0.014394124348958334;rounded=0;" parent="1" source="h7UFg-lYE6FMvcC_o7Jn-5" target="h7UFg-lYE6FMvcC_o7Jn-6" edge="1">
          <mxGeometry relative="1" as="geometry">
            <Array as="points" />
          </mxGeometry>
        </mxCell>
        <mxCell id="h7UFg-lYE6FMvcC_o7Jn-13" value="" style="curved=1;startArrow=none;endArrow=block;exitX=0.5012568183567213;exitY=1.0265153827089253;entryX=0.5015839354632652;entryY=-0.0037876475941051135;rounded=0;" parent="1" source="h7UFg-lYE6FMvcC_o7Jn-6" target="h7UFg-lYE6FMvcC_o7Jn-7" edge="1">
          <mxGeometry relative="1" as="geometry">
            <Array as="points" />
          </mxGeometry>
        </mxCell>
        <mxCell id="h7UFg-lYE6FMvcC_o7Jn-14" value="Start Function" style="ellipse;aspect=fixed;strokeWidth=2;whiteSpace=wrap;" parent="1" vertex="1">
          <mxGeometry x="87" y="80" width="71" height="71" as="geometry" />
        </mxCell>
        <mxCell id="h7UFg-lYE6FMvcC_o7Jn-15" value="1. 根据命令行参数configure，导入相应的模块" style="whiteSpace=wrap;strokeWidth=2;" parent="1" vertex="1">
          <mxGeometry x="27" y="187" width="190" height="53" as="geometry" />
        </mxCell>
        <mxCell id="h7UFg-lYE6FMvcC_o7Jn-16" value="2. 获取被监控的进程proc" style="whiteSpace=wrap;strokeWidth=2;" parent="1" vertex="1">
          <mxGeometry x="59" y="270" width="126" height="40" as="geometry" />
        </mxCell>
        <mxCell id="h7UFg-lYE6FMvcC_o7Jn-17" value="3.通过函数generate_prg，生成eBPF程序(prg)和输出文件(output_fp)" style="whiteSpace=wrap;strokeWidth=2;" parent="1" vertex="1">
          <mxGeometry x="17.5" y="354" width="210" height="46" as="geometry" />
        </mxCell>
        <mxCell id="h7UFg-lYE6FMvcC_o7Jn-18" value="4.建BPF对象（b）,把生成的eBPF程序赋给b" style="whiteSpace=wrap;strokeWidth=2;" parent="1" vertex="1">
          <mxGeometry x="36" y="437" width="172" height="43" as="geometry" />
        </mxCell>
        <mxCell id="h7UFg-lYE6FMvcC_o7Jn-19" value="5.通过attach_probes，挂载eBPF程序到指定的进程上" style="whiteSpace=wrap;strokeWidth=2;" parent="1" vertex="1">
          <mxGeometry x="27" y="520" width="190" height="40" as="geometry" />
        </mxCell>
        <mxCell id="h7UFg-lYE6FMvcC_o7Jn-20" value="6.开始主循环main_loop，进行监控 " style="whiteSpace=wrap;strokeWidth=2;" parent="1" vertex="1">
          <mxGeometry x="46.5" y="604" width="151" height="36" as="geometry" />
        </mxCell>
        <mxCell id="h7UFg-lYE6FMvcC_o7Jn-21" value="" style="curved=1;startArrow=none;endArrow=block;exitX=0.4977030305780916;exitY=0.9989316239316239;entryX=0.5016059345669217;entryY=-0.003787878787878788;rounded=0;" parent="1" source="h7UFg-lYE6FMvcC_o7Jn-14" target="h7UFg-lYE6FMvcC_o7Jn-15" edge="1">
          <mxGeometry relative="1" as="geometry">
            <Array as="points" />
          </mxGeometry>
        </mxCell>
        <mxCell id="h7UFg-lYE6FMvcC_o7Jn-22" value="" style="curved=1;startArrow=none;endArrow=block;exitX=0.5016059345669217;exitY=1.0083333795720881;entryX=0.4977030305780916;entryY=0.008333379572088068;rounded=0;" parent="1" source="h7UFg-lYE6FMvcC_o7Jn-15" target="h7UFg-lYE6FMvcC_o7Jn-16" edge="1">
          <mxGeometry relative="1" as="geometry">
            <Array as="points" />
          </mxGeometry>
        </mxCell>
        <mxCell id="h7UFg-lYE6FMvcC_o7Jn-23" value="" style="curved=1;startArrow=none;endArrow=block;exitX=0.4977030305780916;exitY=1.020454637932055;entryX=0.5011336008707682;entryY=-0.009848392370975378;rounded=0;" parent="1" source="h7UFg-lYE6FMvcC_o7Jn-16" target="h7UFg-lYE6FMvcC_o7Jn-17" edge="1">
          <mxGeometry relative="1" as="geometry">
            <Array as="points" />
          </mxGeometry>
        </mxCell>
        <mxCell id="h7UFg-lYE6FMvcC_o7Jn-24" value="" style="curved=1;startArrow=none;endArrow=block;exitX=0.5011336008707682;exitY=1.0022728659889915;entryX=0.5013765153430757;entryY=0.0022728659889914775;rounded=0;" parent="1" source="h7UFg-lYE6FMvcC_o7Jn-17" target="h7UFg-lYE6FMvcC_o7Jn-18" edge="1">
          <mxGeometry relative="1" as="geometry">
            <Array as="points" />
          </mxGeometry>
        </mxCell>
        <mxCell id="h7UFg-lYE6FMvcC_o7Jn-25" value="" style="curved=1;startArrow=none;endArrow=block;exitX=0.5013765153430757;exitY=1.0143941243489583;entryX=0.5012568183567213;entryY=0.014394124348958334;rounded=0;" parent="1" source="h7UFg-lYE6FMvcC_o7Jn-18" target="h7UFg-lYE6FMvcC_o7Jn-19" edge="1">
          <mxGeometry relative="1" as="geometry">
            <Array as="points" />
          </mxGeometry>
        </mxCell>
        <mxCell id="h7UFg-lYE6FMvcC_o7Jn-26" value="" style="curved=1;startArrow=none;endArrow=block;exitX=0.5012568183567213;exitY=1.0265153827089253;entryX=0.5015839354632652;entryY=-0.0037876475941051135;rounded=0;" parent="1" source="h7UFg-lYE6FMvcC_o7Jn-19" target="h7UFg-lYE6FMvcC_o7Jn-20" edge="1">
          <mxGeometry relative="1" as="geometry">
            <Array as="points" />
          </mxGeometry>
        </mxCell>
      </root>
    </mxGraphModel>
  </diagram>
  <diagram id="IN9KLRWhwznHcERovsdw" name="第 2 页">
    <mxGraphModel dx="1750" dy="902" grid="0" gridSize="10" guides="1" tooltips="1" connect="1" arrows="1" fold="1" page="1" pageScale="1" pageWidth="827" pageHeight="1169" math="0" shadow="0">
      <root>
        <mxCell id="0" />
        <mxCell id="1" parent="0" />
        <mxCell id="AUOW7-mFv-4OuoYt6kua-1" value="开始" style="rounded=1;absoluteArcSize=1;arcSize=14;whiteSpace=wrap;strokeWidth=2;" vertex="1" parent="1">
          <mxGeometry x="473" y="20" width="48" height="33" as="geometry" />
        </mxCell>
        <mxCell id="AUOW7-mFv-4OuoYt6kua-2" value="获取进程列表pid_list" style="whiteSpace=wrap;strokeWidth=2;" vertex="1" parent="1">
          <mxGeometry x="433.5" y="79" width="127" height="38" as="geometry" />
        </mxCell>
        <mxCell id="AUOW7-mFv-4OuoYt6kua-3" value="遍历每个进程" style="rhombus;strokeWidth=2;whiteSpace=wrap;" vertex="1" parent="1">
          <mxGeometry x="438" y="145" width="118" height="44" as="geometry" />
        </mxCell>
        <mxCell id="AUOW7-mFv-4OuoYt6kua-4" value="执行 &#39;top&#39; 命令，获取进程的cpu使用情况" style="whiteSpace=wrap;strokeWidth=2;" vertex="1" parent="1">
          <mxGeometry x="244.5" y="213" width="120" height="39" as="geometry" />
        </mxCell>
        <mxCell id="AUOW7-mFv-4OuoYt6kua-5" value="按行处理 &#39;top&#39; 命令输出" style="whiteSpace=wrap;strokeWidth=2;" vertex="1" parent="1">
          <mxGeometry x="234.75" y="276" width="139.5" height="23" as="geometry" />
        </mxCell>
        <mxCell id="AUOW7-mFv-4OuoYt6kua-6" value="判断该行是否为空" style="rhombus;strokeWidth=2;whiteSpace=wrap;" vertex="1" parent="1">
          <mxGeometry x="229.75" y="328" width="149.5" height="55" as="geometry" />
        </mxCell>
        <mxCell id="AUOW7-mFv-4OuoYt6kua-7" value="跳过行" style="whiteSpace=wrap;strokeWidth=2;" vertex="1" parent="1">
          <mxGeometry x="134" y="623" width="65" height="33" as="geometry" />
        </mxCell>
        <mxCell id="AUOW7-mFv-4OuoYt6kua-8" value="按列分割行" style="whiteSpace=wrap;strokeWidth=2;" vertex="1" parent="1">
          <mxGeometry x="352" y="411" width="96" height="33" as="geometry" />
        </mxCell>
        <mxCell id="AUOW7-mFv-4OuoYt6kua-9" value="提取进程ID CPU使用率和进程名" style="whiteSpace=wrap;strokeWidth=2;" vertex="1" parent="1">
          <mxGeometry x="280.5" y="473" width="239" height="33" as="geometry" />
        </mxCell>
        <mxCell id="AUOW7-mFv-4OuoYt6kua-10" value="判断是否指定输出文件" style="rhombus;strokeWidth=2;whiteSpace=wrap;" vertex="1" parent="1">
          <mxGeometry x="300.25" y="534" width="199.5" height="53" as="geometry" />
        </mxCell>
        <mxCell id="AUOW7-mFv-4OuoYt6kua-11" value="将数据写入文件" style="whiteSpace=wrap;strokeWidth=2;" vertex="1" parent="1">
          <mxGeometry x="223" y="623" width="129" height="33" as="geometry" />
        </mxCell>
        <mxCell id="AUOW7-mFv-4OuoYt6kua-12" value="将数据打印到控制台" style="whiteSpace=wrap;strokeWidth=2;" vertex="1" parent="1">
          <mxGeometry x="382" y="623" width="161" height="33" as="geometry" />
        </mxCell>
        <mxCell id="AUOW7-mFv-4OuoYt6kua-13" value="结束每行处理" style="whiteSpace=wrap;strokeWidth=2;" vertex="1" parent="1">
          <mxGeometry x="301" y="742" width="113" height="33" as="geometry" />
        </mxCell>
        <mxCell id="AUOW7-mFv-4OuoYt6kua-14" value="结束" style="rounded=1;absoluteArcSize=1;arcSize=14;whiteSpace=wrap;strokeWidth=2;" vertex="1" parent="1">
          <mxGeometry x="472" y="219" width="49" height="33" as="geometry" />
        </mxCell>
        <mxCell id="AUOW7-mFv-4OuoYt6kua-15" value="" style="curved=1;startArrow=none;endArrow=block;exitX=0.49143895506858826;exitY=1.0121212583599668;entryX=0.4963309807436807;entryY=0.012121258359966856;rounded=0;" edge="1" parent="1" source="AUOW7-mFv-4OuoYt6kua-1" target="AUOW7-mFv-4OuoYt6kua-2">
          <mxGeometry relative="1" as="geometry">
            <Array as="points" />
          </mxGeometry>
        </mxCell>
        <mxCell id="AUOW7-mFv-4OuoYt6kua-16" value="" style="curved=1;startArrow=none;endArrow=block;exitX=0.4963309807436807;exitY=1.0242425167199336;entryX=0.49718540988556326;entryY=-0.0013698421112478597;rounded=0;" edge="1" parent="1" source="AUOW7-mFv-4OuoYt6kua-2" target="AUOW7-mFv-4OuoYt6kua-3">
          <mxGeometry relative="1" as="geometry">
            <Array as="points" />
          </mxGeometry>
        </mxCell>
        <mxCell id="AUOW7-mFv-4OuoYt6kua-18" value="" style="curved=1;startArrow=none;endArrow=block;exitX=0.49915257146803;exitY=1.0181819453383938;entryX=0.4993333562215169;entryY=-0.0121210849646366;rounded=0;" edge="1" parent="1" source="AUOW7-mFv-4OuoYt6kua-4" target="AUOW7-mFv-4OuoYt6kua-5">
          <mxGeometry relative="1" as="geometry">
            <Array as="points" />
          </mxGeometry>
        </mxCell>
        <mxCell id="AUOW7-mFv-4OuoYt6kua-19" value="" style="curved=1;startArrow=none;endArrow=block;exitX=0.4993333562215169;exitY=1.0000001733953303;entryX=0.4993750214576721;entryY=3.5762786865234374e-8;rounded=0;" edge="1" parent="1" source="AUOW7-mFv-4OuoYt6kua-5" target="AUOW7-mFv-4OuoYt6kua-6">
          <mxGeometry relative="1" as="geometry">
            <Array as="points" />
          </mxGeometry>
        </mxCell>
        <mxCell id="AUOW7-mFv-4OuoYt6kua-20" value="是" style="curved=1;startArrow=none;endArrow=block;exitX=-0.0018749594688415526;exitY=0.8373754257294849;entryX=0.49692306518554685;entryY=0.0060605713815400095;rounded=0;" edge="1" parent="1" source="AUOW7-mFv-4OuoYt6kua-6" target="AUOW7-mFv-4OuoYt6kua-7">
          <mxGeometry relative="1" as="geometry">
            <Array as="points" />
          </mxGeometry>
        </mxCell>
        <mxCell id="AUOW7-mFv-4OuoYt6kua-21" value="否" style="curved=1;startArrow=none;endArrow=block;exitX=0.8570879774621865;exitY=1.0024999976158142;entryX=0.49521486461162567;entryY=-0.006060629179983428;rounded=0;" edge="1" parent="1" source="AUOW7-mFv-4OuoYt6kua-6" target="AUOW7-mFv-4OuoYt6kua-8">
          <mxGeometry relative="1" as="geometry">
            <Array as="points">
              <mxPoint x="387" y="399" />
            </Array>
          </mxGeometry>
        </mxCell>
        <mxCell id="AUOW7-mFv-4OuoYt6kua-22" value="" style="curved=1;startArrow=none;endArrow=block;exitX=0.49521486461162567;exitY=1.0060606291799834;entryX=0.500169987459063;entryY=0.006060629179983428;rounded=0;" edge="1" parent="1" source="AUOW7-mFv-4OuoYt6kua-8" target="AUOW7-mFv-4OuoYt6kua-9">
          <mxGeometry relative="1" as="geometry">
            <Array as="points" />
          </mxGeometry>
        </mxCell>
        <mxCell id="AUOW7-mFv-4OuoYt6kua-23" value="" style="curved=1;startArrow=none;endArrow=block;exitX=0.500169987459063;exitY=1.0181818875399502;entryX=0.5001943875728041;entryY=-0.0019138646468021083;rounded=0;" edge="1" parent="1" source="AUOW7-mFv-4OuoYt6kua-9" target="AUOW7-mFv-4OuoYt6kua-10">
          <mxGeometry relative="1" as="geometry">
            <Array as="points" />
          </mxGeometry>
        </mxCell>
        <mxCell id="AUOW7-mFv-4OuoYt6kua-24" value="是" style="curved=1;startArrow=none;endArrow=block;exitX=0.14935464374610719;exitY=0.9990430585505289;entryX=0.4979893329531647;entryY=0.0060605713815400095;rounded=0;" edge="1" parent="1" source="AUOW7-mFv-4OuoYt6kua-10" target="AUOW7-mFv-4OuoYt6kua-11">
          <mxGeometry relative="1" as="geometry">
            <Array as="points" />
          </mxGeometry>
        </mxCell>
        <mxCell id="AUOW7-mFv-4OuoYt6kua-25" value="否" style="curved=1;startArrow=none;endArrow=block;exitX=0.8510341313995011;exitY=0.9990430585505289;entryX=0.49590453449983773;entryY=0.0060605713815400095;rounded=0;" edge="1" parent="1" source="AUOW7-mFv-4OuoYt6kua-10" target="AUOW7-mFv-4OuoYt6kua-12">
          <mxGeometry relative="1" as="geometry">
            <Array as="points">
              <mxPoint x="458" y="604" />
            </Array>
          </mxGeometry>
        </mxCell>
        <mxCell id="AUOW7-mFv-4OuoYt6kua-26" value="" style="curved=1;startArrow=none;endArrow=block;exitX=0.49692306518554685;exitY=1.0181818297415068;rounded=0;" edge="1" parent="1">
          <mxGeometry relative="1" as="geometry">
            <Array as="points">
              <mxPoint x="188" y="713" />
              <mxPoint x="248" y="761" />
            </Array>
            <mxPoint x="172.99701681199502" y="656" as="sourcePoint" />
            <mxPoint x="297" y="753" as="targetPoint" />
          </mxGeometry>
        </mxCell>
        <mxCell id="AUOW7-mFv-4OuoYt6kua-27" value="" style="curved=1;startArrow=none;endArrow=block;exitX=0.4979893329531647;exitY=1.0181818297415068;entryX=0.155521752624966;entryY=-0.012121200561523438;rounded=0;" edge="1" parent="1" source="AUOW7-mFv-4OuoYt6kua-11" target="AUOW7-mFv-4OuoYt6kua-13">
          <mxGeometry relative="1" as="geometry">
            <Array as="points">
              <mxPoint x="323" y="708" />
            </Array>
          </mxGeometry>
        </mxCell>
        <mxCell id="AUOW7-mFv-4OuoYt6kua-28" value="" style="curved=1;startArrow=none;endArrow=block;exitX=0.49590453449983773;exitY=1.0181818297415068;entryX=0.8451973093700086;entryY=-0.012121200561523438;rounded=0;" edge="1" parent="1" source="AUOW7-mFv-4OuoYt6kua-12" target="AUOW7-mFv-4OuoYt6kua-13">
          <mxGeometry relative="1" as="geometry">
            <Array as="points" />
          </mxGeometry>
        </mxCell>
        <mxCell id="AUOW7-mFv-4OuoYt6kua-29" value="" style="curved=1;startArrow=none;endArrow=block;exitX=0.9985896127413859;exitY=0.21089519535270843;entryX=0.7737712366109285;entryY=0.9986301578887521;rounded=0;" edge="1" parent="1">
          <mxGeometry relative="1" as="geometry">
            <Array as="points">
              <mxPoint x="617" y="656" />
              <mxPoint x="555" y="370.8" />
            </Array>
            <mxPoint x="413" y="752.7325538383116" as="sourcePoint" />
            <mxPoint x="516.9120582576206" y="185.00228336156516" as="targetPoint" />
          </mxGeometry>
        </mxCell>
        <mxCell id="AUOW7-mFv-4OuoYt6kua-30" value="结束循环" style="curved=1;startArrow=none;endArrow=block;exitX=0.49718540988556326;exitY=0.9986301578887521;entryX=0.5018177519039232;entryY=0.0060606869784268465;rounded=0;" edge="1" parent="1" source="AUOW7-mFv-4OuoYt6kua-3" target="AUOW7-mFv-4OuoYt6kua-14">
          <mxGeometry relative="1" as="geometry">
            <Array as="points" />
          </mxGeometry>
        </mxCell>
        <mxCell id="AUOW7-mFv-4OuoYt6kua-32" value="" style="curved=1;endArrow=classic;html=1;rounded=0;exitX=0;exitY=0.5;exitDx=0;exitDy=0;entryX=0.5;entryY=0;entryDx=0;entryDy=0;" edge="1" parent="1" source="AUOW7-mFv-4OuoYt6kua-3" target="AUOW7-mFv-4OuoYt6kua-4">
          <mxGeometry width="50" height="50" relative="1" as="geometry">
            <mxPoint x="387" y="318" as="sourcePoint" />
            <mxPoint x="437" y="268" as="targetPoint" />
            <Array as="points">
              <mxPoint x="363" y="163" />
              <mxPoint x="305" y="179" />
            </Array>
          </mxGeometry>
        </mxCell>
      </root>
    </mxGraphModel>
  </diagram>
</mxfile>
